HIERARCHY
ROOT Hips
{
	OFFSET -0.001795 -0.223333 0.028219
	CHANNELS 6 Xposition Yposition Zposition Zrotation Yrotation Xrotation 
	JOINT LeftUpLeg
	{
		OFFSET 0.069520 -0.091406 -0.006815
		CHANNELS 3 Zrotation Yrotation Xrotation
		JOINT LeftLeg
		{
			OFFSET 0.034277 -0.375199 -0.004496
			CHANNELS 3 Zrotation Yrotation Xrotation
			JOINT LeftFoot
			{
				OFFSET -0.013596 -0.397961 -0.043693
				CHANNELS 3 Zrotation Yrotation Xrotation
				JOINT LeftToe
				{
					OFFSET 0.026358 -0.055791 0.119288
					CHANNELS 3 Zrotation Yrotation Xrotation
					End Site
					{
						OFFSET 0.000000 0.000000 0.000000
					}
				}
			}
		}
	}
	JOINT RightUpLeg
	{
		OFFSET -0.067670 -0.090522 -0.004320
		CHANNELS 3 Zrotation Yrotation Xrotation
		JOINT RightLeg
		{
			OFFSET -0.038290 -0.382569 -0.008850
			CHANNELS 3 Zrotation Yrotation Xrotation
			JOINT RightFoot
			{
				OFFSET 0.015774 -0.398415 -0.042312
				CHANNELS 3 Zrotation Yrotation Xrotation
				JOINT RightToe
				{
					OFFSET -0.025372 -0.048144 0.123348
					CHANNELS 3 Zrotation Yrotation Xrotation
					End Site
					{
						OFFSET 0.000000 0.000000 0.000000
					}
				}
			}
		}
	}
	JOINT Spine
	{
		OFFSET -0.002533 0.108963 -0.026696
		CHANNELS 3 Zrotation Yrotation Xrotation
		JOINT Spine1
		{
			OFFSET 0.005487 0.135180 0.001092
			CHANNELS 3 Zrotation Yrotation Xrotation
			JOINT Spine2
			{
				OFFSET 0.001457 0.052922 0.025425
				CHANNELS 3 Zrotation Yrotation Xrotation
				JOINT Neck
				{
					OFFSET -0.002778 0.213870 -0.042857
					CHANNELS 3 Zrotation Yrotation Xrotation
					JOINT Head
					{
						OFFSET 0.005152 0.064970 0.051349
						CHANNELS 3 Zrotation Yrotation Xrotation
						End Site
						{
							OFFSET 0.000000 0.000000 0.000000
						}
					}
				}
				JOINT LeftShoulder
				{
					OFFSET 0.078845 0.121749 -0.034090
					CHANNELS 3 Zrotation Yrotation Xrotation
					JOINT LeftArm
					{
						OFFSET 0.090977 0.030469 -0.008868
						CHANNELS 3 Zrotation Yrotation Xrotation
						JOINT LeftForeArm
						{
							OFFSET 0.259612 -0.012772 -0.027456
							CHANNELS 3 Zrotation Yrotation Xrotation
							JOINT LeftHand
							{
								OFFSET 0.249234 0.008986 -0.001171
								CHANNELS 3 Zrotation Yrotation Xrotation
								End Site
								{
									OFFSET 0.000000 0.000000 0.000000
								}
							}
						}
					}
				}
				JOINT RightShoulder
				{
					OFFSET -0.081759 0.118833 -0.038615
					CHANNELS 3 Zrotation Yrotation Xrotation
					JOINT RightArm
					{
						OFFSET -0.096012 0.032551 -0.009143
						CHANNELS 3 Zrotation Yrotation Xrotation
						JOINT RightForeArm
						{
							OFFSET -0.253742 -0.013329 -0.021401
							CHANNELS 3 Zrotation Yrotation Xrotation
							JOINT RightHand
							{
								OFFSET -0.255298 0.007772 -0.005559
								CHANNELS 3 Zrotation Yrotation Xrotation
								End Site
								{
									OFFSET 0.000000 0.000000 0.000000
								}
							}
						}
					}
				}
			}
		}
	}
}
MOTION
Frames: 14
Frame Time: 0.050000
0.508373 0.710525 -0.536291 -4.032991 3.579555 1.581870 37.520584 6.137444 -31.796354 -30.873349 15.660778 48.953643 10.206715 21.532775 -28.917965 0.000000 0.000000 0.000000 -26.111139 -5.886941 -41.245856 21.316059 -14.568894 61.496021 -7.237183 -16.245527 -17.456498 0.000000 0.000000 0.000000 -1.593962 -0.855146 23.528422 11.467423 -1.799795 -26.590793 -1.119457 -0.110651 22.977728 -4.170788 4.279027 -24.369886 0.000000 0.000000 0.000000 -22.371374 -13.793119 6.075581 -36.599978 -41.465206 6.065091 141.691170 -55.594560 -104.539053 0.000000 0.000000 0.000000 7.866422 19.376817 8.085175 47.881384 38.288227 9.061786 -169.146964 52.973750 -143.489166 0.000000 0.000000 0.000000 
0.511182 0.681588 -0.536563 -3.894684 3.907079 0.205459 39.303443 7.117124 -34.132016 -32.440921 18.496637 55.213199 10.024719 20.813300 -30.867646 0.000000 0.000000 0.000000 -27.403020 -6.732422 -42.185547 20.905136 -15.601901 66.690744 -7.367563 -15.876493 -21.918681 0.000000 0.000000 0.000000 -2.588929 -0.746751 25.661063 13.102215 -2.065676 -27.557198 -1.438503 -0.032147 23.640895 -3.509553 3.949371 -24.852708 0.000000 0.000000 0.000000 -22.101828 -15.145179 6.774709 -34.343264 -42.215701 5.643961 139.787467 -54.630549 -101.056792 0.000000 0.000000 0.000000 7.765344 20.391474 8.497315 45.705882 38.853258 8.636931 -164.352621 51.249984 -132.775008 0.000000 0.000000 0.000000 
0.513005 0.656498 -0.536486 -3.902730 5.021381 -0.738236 40.749395 7.846140 -36.842051 -33.442258 20.671787 60.414615 9.794297 19.929049 -31.927310 0.000000 0.000000 0.000000 -28.946024 -7.896831 -42.770002 20.831652 -17.030596 70.966001 -7.505952 -15.635428 -24.993630 0.000000 0.000000 0.000000 -2.951828 -0.760399 26.171503 13.621962 -2.232018 -27.317572 -1.580918 -0.860385 23.793822 -3.804253 4.087762 -24.430101 0.000000 0.000000 0.000000 -22.927245 -15.756878 7.231698 -32.932743 -42.893447 5.451973 138.444784 -55.494696 -100.349339 0.000000 0.000000 0.000000 7.472881 21.314172 8.785707 44.559436 39.854343 8.712634 -159.057091 49.443118 -121.104307 0.000000 0.000000 0.000000 
0.513761 0.636379 -0.536358 -3.827178 5.828721 -1.778349 41.862248 8.386739 -38.719685 -33.999427 22.370036 64.528420 9.575902 19.030882 -32.037837 0.000000 0.000000 0.000000 -29.166822 -8.430883 -43.236001 19.133849 -16.874984 75.247297 -7.676619 -15.553407 -28.144704 0.000000 0.000000 0.000000 -3.890303 -0.642595 27.215440 14.496774 -2.506501 -26.934495 -1.838068 -0.884318 23.669225 -3.504302 3.993538 -25.664415 0.000000 0.000000 0.000000 -24.018016 -15.339515 6.905042 -32.368192 -42.473779 5.239453 139.039059 -55.558343 -101.611270 0.000000 0.000000 0.000000 8.876165 22.485146 9.590541 42.499542 40.637163 8.432387 -154.061570 48.408379 -110.806796 0.000000 0.000000 0.000000 
0.513980 0.621878 -0.536096 -3.602451 7.410323 -2.831219 42.214463 8.270590 -40.114805 -34.550033 23.237840 67.041107 9.369204 18.204303 -33.207022 0.000000 0.000000 0.000000 -29.286844 -8.973686 -42.743457 16.981118 -16.246146 78.669484 -7.868900 -15.665721 -30.782849 0.000000 0.000000 0.000000 -4.774904 -0.578653 27.875429 14.713303 -2.625615 -26.590527 -1.530213 -0.924088 23.560000 -3.050263 3.822879 -24.315725 0.000000 0.000000 0.000000 -24.219757 -15.514361 6.716490 -33.102847 -41.119962 5.147704 139.613679 -55.743655 -103.133008 0.000000 0.000000 0.000000 10.140225 23.084359 10.214479 41.466394 41.237476 8.374141 -150.603800 48.184225 -104.271459 0.000000 0.000000 0.000000 
0.514217 0.610032 -0.535824 -3.659684 8.578652 -4.160038 42.885252 8.257218 -40.967302 -34.917489 24.032307 69.371628 9.117931 17.125214 -33.107369 0.000000 0.000000 0.000000 -28.355050 -9.060927 -42.853459 14.005064 -14.577770 82.672253 -7.952541 -15.759403 -31.324705 0.000000 0.000000 0.000000 -5.705544 -0.509989 29.036068 15.350272 -2.712053 -27.232984 -1.454306 -0.603103 24.120334 -3.115480 4.022306 -24.336002 0.000000 0.000000 0.000000 -25.351127 -15.156471 6.249100 -33.761271 -39.450482 4.887433 140.327779 -55.555983 -104.348456 0.000000 0.000000 0.000000 11.435635 23.795069 10.942524 38.983588 41.762792 7.762855 -147.023819 47.897792 -97.841903 0.000000 0.000000 0.000000 
0.515116 0.603219 -0.535488 -3.584675 9.609443 -5.200456 41.992631 7.888848 -42.066759 -33.677253 23.617421 72.179782 9.008697 16.740767 -33.171572 0.000000 0.000000 0.000000 -28.141891 -9.412913 -43.025652 12.085773 -13.452139 85.569157 -7.879985 -15.439459 -29.699880 0.000000 0.000000 0.000000 -6.120261 -0.548152 30.010054 15.221478 -2.755617 -26.828380 -1.260088 0.624902 23.010464 -2.389549 3.805258 -23.011221 0.000000 0.000000 0.000000 -25.871874 -15.266838 5.627426 -34.713688 -36.680036 4.610331 141.875212 -56.558212 -108.778945 0.000000 0.000000 0.000000 13.089053 23.914031 11.668645 36.180568 41.449412 6.900919 -144.820848 47.857792 -94.088856 0.000000 0.000000 0.000000 
0.516570 0.595330 -0.535009 -3.488453 10.302435 -6.421414 40.674702 7.652032 -43.821933 -31.445162 22.941503 76.596461 8.808664 16.291452 -30.411764 0.000000 0.000000 0.000000 -27.926486 -9.663944 -43.223447 10.332129 -12.434413 89.715878 -7.736029 -14.513827 -28.387308 0.000000 0.000000 0.000000 -6.655214 -0.560450 31.360488 14.217385 -2.447298 -27.463310 -0.239672 1.785538 23.718658 -2.230400 3.997664 -24.077841 0.000000 0.000000 0.000000 -26.219190 -14.886414 4.868929 -35.704068 -35.172834 4.485446 143.895089 -55.617721 -111.325100 0.000000 0.000000 0.000000 13.841487 23.762978 12.021812 34.009806 40.813035 6.023959 -144.619889 47.240559 -92.467972 0.000000 0.000000 0.000000 
0.518290 0.589486 -0.534463 -3.723584 11.234590 -7.285491 38.979202 7.042141 -45.155184 -29.080297 21.386410 79.982334 8.837538 16.462618 -31.492680 0.000000 0.000000 0.000000 -27.736425 -10.006783 -43.436004 9.167358 -11.943491 92.768414 -7.635717 -14.242727 -26.433115 0.000000 0.000000 0.000000 -6.499092 -0.752756 32.189495 14.004365 -2.324281 -28.063103 -0.163903 2.740517 23.915491 -1.350031 3.708459 -24.231312 0.000000 0.000000 0.000000 -26.111485 -14.351858 4.001321 -37.193999 -33.969793 4.544177 145.099658 -55.325983 -113.495380 0.000000 0.000000 0.000000 14.581457 23.667641 12.439819 31.611560 39.938465 5.074752 -143.059015 47.064386 -89.564653 0.000000 0.000000 0.000000 
0.519632 0.583280 -0.533918 -3.976769 11.435128 -8.176175 38.113040 6.931621 -46.411672 -27.140352 20.447432 83.412112 8.694884 16.173400 -29.205000 0.000000 0.000000 0.000000 -27.093904 -10.123123 -44.625861 8.217959 -11.203362 95.809097 -7.556033 -14.785053 -23.100978 0.000000 0.000000 0.000000 -6.733923 -0.754335 32.512641 13.859980 -2.352552 -27.798203 0.315917 3.494533 23.500382 -0.429955 3.329304 -24.867959 0.000000 0.000000 0.000000 -27.476772 -13.428131 2.993971 -37.744835 -33.137516 4.619940 147.949244 -56.611174 -119.666158 0.000000 0.000000 0.000000 14.446779 23.378074 12.392947 32.286310 38.499811 4.900319 -141.923715 47.696706 -88.455086 0.000000 0.000000 0.000000 
0.520450 0.578871 -0.533504 -4.440207 11.192944 -8.337761 37.603973 7.107259 -47.988169 -25.187353 19.503755 86.353438 8.571463 16.005671 -26.169478 0.000000 0.000000 0.000000 -26.761254 -10.209545 -45.844676 8.368385 -11.422248 96.946221 -7.563027 -15.451746 -20.811460 0.000000 0.000000 0.000000 -6.476732 -0.803337 32.329448 13.625673 -2.194789 -28.663398 0.447323 2.931519 23.779846 0.268514 2.823864 -25.021149 0.000000 0.000000 0.000000 -26.985117 -12.519649 2.715631 -38.534133 -33.216235 4.664272 149.580149 -57.669691 -122.905800 0.000000 0.000000 0.000000 14.452031 22.560394 11.890447 33.123916 36.784536 4.559747 -142.664520 48.908559 -91.430669 0.000000 0.000000 0.000000 
0.520942 0.576631 -0.533478 -5.294413 11.336063 -8.569524 36.770269 7.026689 -49.840047 -22.773426 17.654541 89.294673 8.397604 15.710597 -22.969874 0.000000 0.000000 0.000000 -26.530054 -10.235468 -46.039053 8.119623 -11.440179 98.126816 -6.963924 -12.732812 -20.455524 0.000000 0.000000 0.000000 -6.840469 -0.745406 32.155867 13.952026 -2.219134 -29.229858 1.096305 1.703497 24.078352 -0.027793 2.922659 -26.864295 0.000000 0.000000 0.000000 -26.252347 -11.190609 2.371809 -38.745906 -33.480017 4.625813 150.492166 -57.922741 -124.047014 0.000000 0.000000 0.000000 13.853030 22.103690 11.307523 34.684079 34.294223 4.165461 -143.171753 49.620533 -93.489212 0.000000 0.000000 0.000000 
0.521354 0.574084 -0.533764 -5.756794 10.543037 -8.664905 37.323142 7.757386 -51.077442 -24.158722 20.714996 91.666087 11.282785 24.829289 -15.987479 0.000000 0.000000 0.000000 -26.801513 -10.345433 -46.995333 9.493810 -12.987168 98.860167 -6.985172 -13.353054 -19.084439 0.000000 0.000000 0.000000 -7.698887 -0.472119 32.397015 14.830621 -2.241627 -30.737046 1.771352 1.098927 24.468993 -0.676682 3.183167 -28.163010 0.000000 0.000000 0.000000 -26.630160 -10.469426 2.342408 -37.474436 -34.136261 4.461934 150.313311 -60.449486 -125.709053 0.000000 0.000000 0.000000 14.046126 21.340924 10.791779 36.768670 31.487861 3.649537 -145.940966 51.843654 -100.935740 0.000000 0.000000 0.000000 
0.521612 0.573124 -0.534487 -6.542708 10.230028 -8.762472 36.646794 7.711462 -51.763372 -25.131168 22.745402 93.425221 14.821332 34.073127 -14.711159 0.000000 0.000000 0.000000 -26.524087 -10.216158 -47.404722 10.370762 -14.334236 99.665058 -7.064046 -13.779658 -18.709413 0.000000 0.000000 0.000000 -7.798108 -0.443539 32.510710 15.168805 -2.160370 -31.966043 2.083513 0.588919 24.809964 -0.950188 3.281581 -29.371013 0.000000 0.000000 0.000000 -25.812666 -10.571740 2.707784 -36.716615 -36.075255 4.790634 148.666962 -61.040564 -123.570074 0.000000 0.000000 0.000000 15.543085 20.702777 10.730437 35.920021 29.719962 2.849585 -145.378571 53.064245 -102.215303 0.000000 0.000000 0.000000 
